# xmcd
#
# Track frame offsets: 
#        182
#        13027
#        25995
#        40672
#        50870
#        65557
#        88860
#        108062
#        120912
#        133970
#        144802
#        157837
#
# Disc length: 2300 seconds
#
# Revision: 7
# Processed by: cddbd v1.5.2PL0 Copyright (c) Steve Scherf et al.
# Submitted via: ExactAudioCopyFreeDBPlugin 1.0
#
DISCID=9808fa0c
DTITLE=J. J. Cale - 5
DYEAR=1979
DGENRE=Blues
TTITLE0=Thirteen Days
TTITLE1=Boilin' Pot
TTITLE2=I'll Make Love To You
TTITLE3=Don't Cry Sister
TTITLE4=Too Much For Me
TTITLE5=Sensitive Kind
TTITLE6=Friday
TTITLE7=Lou-Easy-Ann
TTITLE8=Let's Go To Tahiti
TTITLE9=Katy Kool Lady
TTITLE10=Fate Of A Fool
TTITLE11=Mona
EXTD=YEAR: 1979
EXTT0=
EXTT1=
EXTT2=
EXTT3=
EXTT4=
EXTT5=
EXTT6=
EXTT7=
EXTT8=
EXTT9=
EXTT10=
EXTT11=
PLAYORDER=
